# xmcd
#
# Track frame offsets: 
#        150
#        17214
#        33028
#        53904
#        76542
#        90253
#        119395
#        146874
#
# Disc length: 2208 seconds
#
# Revision: 0
# Processed by: cddbd v1.5.2PL0 Copyright (c) Steve Scherf et al.
# Submitted via: ExactAudioCopyFreeDBPlugin 1.0
#
DISCID=57089e08
DTITLE=Uwe Schöne - soul mates
DYEAR=2002
DGENRE=Soul
TTITLE0=time is on your side
TTITLE1=the black spot
TTITLE2=running fast
TTITLE3=yellow balloon
TTITLE4=what a day
TTITLE5=you 've gone so far
TTITLE6=you and I
TTITLE7=I fly
EXTD=
EXTT0=
EXTT1=
EXTT2=
EXTT3=
EXTT4=
EXTT5=
EXTT6=
EXTT7=
PLAYORDER=
